<svg width="1181" height="278" viewBox="0 0 1181 278" fill="none" xmlns="http://www.w3.org/2000/svg">
<ellipse cx="17.5" cy="21.5" rx="17.5" ry="16.5" fill="#0E09FC"/>
<ellipse cx="17.5" cy="157" rx="17.5" ry="17" fill="#FF1826"/>
<ellipse cx="17.5" cy="202.5" rx="17.5" ry="16.5" fill="#0E09FC"/>
<ellipse cx="143.5" cy="157" rx="17.5" ry="17" fill="#FF1826"/>
<ellipse cx="143.5" cy="202.5" rx="17.5" ry="16.5" fill="#0E09FC"/>
<ellipse cx="17.5" cy="67" rx="17.5" ry="17" fill="#FF1826"/>
<ellipse cx="17.5" cy="112" rx="17.5" ry="17" fill="#FAFF12"/>
<ellipse cx="143.5" cy="21.5" rx="17.5" ry="16.5" fill="#0E09FC"/>
<ellipse cx="103.5" cy="112" rx="17.5" ry="17" fill="black"/>
<ellipse cx="61.5" cy="112" rx="17.5" ry="17" fill="black"/>
<ellipse cx="143.5" cy="67" rx="17.5" ry="17" fill="#FF1826"/>
<ellipse cx="143.5" cy="112" rx="17.5" ry="17" fill="#FAFF12"/>
<ellipse cx="17.5" cy="21.5" rx="17.5" ry="16.5" fill="#0E09FC"/>
<ellipse cx="17.5" cy="157" rx="17.5" ry="17" fill="#FF1826"/>
<ellipse cx="17.5" cy="202.5" rx="17.5" ry="16.5" fill="#0E09FC"/>
<ellipse cx="143.5" cy="157" rx="17.5" ry="17" fill="#FF1826"/>
<ellipse cx="143.5" cy="202.5" rx="17.5" ry="16.5" fill="#0E09FC"/>
<ellipse cx="17.5" cy="67" rx="17.5" ry="17" fill="#FF1826"/>
<ellipse cx="17.5" cy="112" rx="17.5" ry="17" fill="#FAFF12"/>
<ellipse cx="143.5" cy="21.5" rx="17.5" ry="16.5" fill="#0E09FC"/>
<ellipse cx="103.5" cy="112" rx="17.5" ry="17" fill="black"/>
<ellipse cx="61.5" cy="112" rx="17.5" ry="17" fill="black"/>
<ellipse cx="143.5" cy="67" rx="17.5" ry="17" fill="#FF1826"/>
<ellipse cx="143.5" cy="112" rx="17.5" ry="17" fill="#FAFF12"/>
<ellipse cx="17.5" cy="21.5" rx="17.5" ry="16.5" fill="#0E09FC"/>
<ellipse cx="17.5" cy="157" rx="17.5" ry="17" fill="#FF1826"/>
<ellipse cx="17.5" cy="202.5" rx="17.5" ry="16.5" fill="#0E09FC"/>
<ellipse cx="143.5" cy="157" rx="17.5" ry="17" fill="#FF1826"/>
<ellipse cx="143.5" cy="202.5" rx="17.5" ry="16.5" fill="#0E09FC"/>
<ellipse cx="17.5" cy="67" rx="17.5" ry="17" fill="#FF1826"/>
<ellipse cx="17.5" cy="112" rx="17.5" ry="17" fill="#FAFF12"/>
<ellipse cx="143.5" cy="21.5" rx="17.5" ry="16.5" fill="#0E09FC"/>
<ellipse cx="103.5" cy="112" rx="17.5" ry="17" fill="black"/>
<ellipse cx="61.5" cy="112" rx="17.5" ry="17" fill="black"/>
<ellipse cx="143.5" cy="67" rx="17.5" ry="17" fill="#FF1826"/>
<path d="M243.828 218.812C223.203 218.812 206.422 212.062 193.484 198.562C180.547 184.969 174.078 166.828 174.078 144.141V139.359C174.078 124.266 176.938 110.812 182.656 99C188.469 87.0938 196.531 77.8125 206.844 71.1562C217.25 64.4062 228.5 61.0312 240.594 61.0312C260.375 61.0312 275.75 67.5469 286.719 80.5781C297.688 93.6094 303.172 112.266 303.172 136.547V147.375H200.094C200.469 162.375 204.828 174.516 213.172 183.797C221.609 192.984 232.297 197.578 245.234 197.578C254.422 197.578 262.203 195.703 268.578 191.953C274.953 188.203 280.531 183.234 285.312 177.047L301.203 189.422C288.453 209.016 269.328 218.812 243.828 218.812ZM240.594 82.4062C230.094 82.4062 221.281 86.25 214.156 93.9375C207.031 101.531 202.625 112.219 200.938 126H277.156V124.031C276.406 110.812 272.844 100.594 266.469 93.375C260.094 86.0625 251.469 82.4062 240.594 82.4062ZM357.875 63.8438L358.578 80.7188C369.734 67.5938 384.781 61.0312 403.719 61.0312C425 61.0312 439.484 69.1875 447.172 85.5C452.234 78.1875 458.797 72.2812 466.859 67.7812C475.016 63.2812 484.625 61.0312 495.688 61.0312C529.062 61.0312 546.031 78.7031 546.594 114.047V216H520.578V115.594C520.578 104.719 518.094 96.6094 513.125 91.2656C508.156 85.8281 499.812 83.1094 488.094 83.1094C478.438 83.1094 470.422 86.0156 464.047 91.8281C457.672 97.5469 453.969 105.281 452.938 115.031V216H426.781V116.297C426.781 94.1719 415.953 83.1094 394.297 83.1094C377.234 83.1094 365.562 90.375 359.281 104.906V216H333.266V63.8438H357.875ZM579.078 138.516C579.078 123.609 581.984 110.203 587.797 98.2969C593.703 86.3906 601.859 77.2031 612.266 70.7344C622.766 64.2656 634.719 61.0312 648.125 61.0312C668.844 61.0312 685.578 68.2031 698.328 82.5469C711.172 96.8906 717.594 115.969 717.594 139.781V141.609C717.594 156.422 714.734 169.734 709.016 181.547C703.391 193.266 695.281 202.406 684.688 208.969C674.188 215.531 662.094 218.812 648.406 218.812C627.781 218.812 611.047 211.641 598.203 197.297C585.453 182.953 579.078 163.969 579.078 140.344V138.516ZM605.234 141.609C605.234 158.484 609.125 172.031 616.906 182.25C624.781 192.469 635.281 197.578 648.406 197.578C661.625 197.578 672.125 192.422 679.906 182.109C687.688 171.703 691.578 157.172 691.578 138.516C691.578 121.828 687.594 108.328 679.625 98.0156C671.75 87.6094 661.25 82.4062 648.125 82.4062C635.281 82.4062 624.922 87.5156 617.047 97.7344C609.172 107.953 605.234 122.578 605.234 141.609ZM785.516 27V63.8438H813.922V83.9531H785.516V178.312C785.516 184.406 786.781 189 789.312 192.094C791.844 195.094 796.156 196.594 802.25 196.594C805.25 196.594 809.375 196.031 814.625 194.906V216C807.781 217.875 801.125 218.812 794.656 218.812C783.031 218.812 774.266 215.297 768.359 208.266C762.453 201.234 759.5 191.25 759.5 178.312V83.9531H731.797V63.8438H759.5V27H785.516ZM907.578 218.812C886.953 218.812 870.172 212.062 857.234 198.562C844.297 184.969 837.828 166.828 837.828 144.141V139.359C837.828 124.266 840.688 110.812 846.406 99C852.219 87.0938 860.281 77.8125 870.594 71.1562C881 64.4062 892.25 61.0312 904.344 61.0312C924.125 61.0312 939.5 67.5469 950.469 80.5781C961.438 93.6094 966.922 112.266 966.922 136.547V147.375H863.844C864.219 162.375 868.578 174.516 876.922 183.797C885.359 192.984 896.047 197.578 908.984 197.578C918.172 197.578 925.953 195.703 932.328 191.953C938.703 188.203 944.281 183.234 949.062 177.047L964.953 189.422C952.203 209.016 933.078 218.812 907.578 218.812ZM904.344 82.4062C893.844 82.4062 885.031 86.25 877.906 93.9375C870.781 101.531 866.375 112.219 864.688 126H940.906V124.031C940.156 110.812 936.594 100.594 930.219 93.375C923.844 86.0625 915.219 82.4062 904.344 82.4062ZM1025.42 216H999.406V0H1025.42V216ZM1116.97 177.891L1152.41 63.8438H1180.25L1119.08 239.484C1109.61 264.797 1094.56 277.453 1073.94 277.453L1069.02 277.031L1059.31 275.203V254.109L1066.34 254.672C1075.16 254.672 1082 252.891 1086.88 249.328C1091.84 245.766 1095.92 239.25 1099.11 229.781L1104.88 214.312L1050.59 63.8438H1079L1116.97 177.891Z" fill="black"/>
</svg>
